<svg width="128" height="24" viewBox="0 0 128 24" fill="none" xmlns="http://www.w3.org/2000/svg">
<path d="M1.6236 21.9574C0.489608 20.2815 -0.0733133 18.2722 0.0213584 16.2383V7.7617C-0.115966 5.70593 0.411707 3.66097 1.52346 1.94043C2.62499 0.612766 4.32737 0 6.83086 0C9.33436 0 10.9366 0.612766 11.938 1.73617C13.0252 3.15904 13.56 4.9407 13.4401 6.74043V8.78298H8.53324V6.43404C8.57287 5.73932 8.47057 5.04378 8.23282 4.39149C8.10574 4.12819 7.90433 3.90969 7.65449 3.76409C7.40465 3.61849 7.11781 3.55245 6.83086 3.57447C6.12989 3.57447 5.62919 3.77872 5.42891 4.28936C5.20237 5.015 5.10073 5.77516 5.12849 6.53617V17.4638C5.0756 18.2022 5.21373 18.9417 5.52905 19.6085C5.72933 20.1192 6.23003 20.3234 6.931 20.3234C7.63198 20.3234 8.03254 20.1192 8.23282 19.6085C8.4605 18.9183 8.56232 18.1914 8.53324 17.4638V15.0128H13.4401V17.0553C13.5419 18.8844 13.0103 20.6918 11.938 22.1617C10.9366 23.3872 9.23422 24 6.83086 24C4.42751 23.8979 2.62499 23.2851 1.6236 21.9574Z" fill="#111111"/>
<path d="M19.3483 0.306274H25.0563L29.2622 23.5914H24.6557L23.8546 18.6893H20.55L19.7489 23.5914H15.0423L19.3483 0.306274ZM23.454 15.6254L22.2524 6.53606L21.0507 15.6254H23.454Z" fill="#111111"/>
<path d="M32.767 4.18713H29.3623V0.306274H41.2789V4.085H37.8742V23.5914H32.767V4.18713Z" fill="#111111"/>
<path d="M50.3916 0.306274H59.2039V2.75734H53.496V10.4169H58.1024V12.7658H53.496V21.3446H59.2039V23.6935H50.2915V0.306274H50.3916Z" fill="#111111"/>
<path d="M61.8076 0.306274H64.0107L70.5198 15.7276V0.306274H73.1234V23.5914H71.1206L64.5114 7.65947V23.5914H61.8076V0.306274Z" fill="#111111"/>
<path d="M76.1276 0.306274H84.9399V2.75734H79.2319V10.4169H83.8383V12.7658H79.2319V21.3446H84.9399V23.6935H76.1276V0.306274Z" fill="#111111"/>
<path d="M87.5435 0.306296H92.1499C93.962 0.178639 95.7629 0.682798 97.2571 1.73608C98.3586 2.65523 98.8593 4.28927 98.8593 6.43396C98.8593 9.39566 97.958 11.234 96.0554 11.8467L99.2599 23.4893H96.1555L93.1513 12.5616H90.6478V23.4893H87.4434V0.306296H87.5435ZM91.9497 10.3148C92.982 10.4016 94.011 10.1121 94.8537 9.49778C95.4546 8.98715 95.755 7.96587 95.755 6.43396C95.7827 5.67295 95.6811 4.91279 95.4546 4.18715C95.2292 3.66645 94.8421 3.23582 94.353 2.96162C93.6633 2.64108 92.9062 2.50069 92.1499 2.5531H90.748V10.2127H91.9497V10.3148Z" fill="#111111"/>
<path d="M102.865 21.8552C101.824 20.0696 101.335 18.0052 101.463 15.9318V8.17013C101.438 6.69013 101.607 5.21336 101.964 3.77864C102.299 2.70652 102.967 1.77457 103.866 1.12332C104.984 0.44833 106.274 0.128339 107.571 0.204169C109.674 0.204169 111.177 0.714807 112.078 1.83821C113.115 3.3216 113.61 5.12783 113.48 6.94459V7.76162H110.476V7.04672C110.48 6.1914 110.413 5.33724 110.275 4.49353C110.191 3.96037 109.903 3.48301 109.474 3.16587C108.911 2.78909 108.243 2.60981 107.571 2.65523C106.853 2.60831 106.143 2.82575 105.569 3.268C105.333 3.47043 105.141 3.71977 105.003 4.00074C104.865 4.28172 104.785 4.58841 104.768 4.90204C104.636 5.81505 104.569 6.73661 104.567 7.65949V16.3403C104.493 17.6629 104.698 18.9862 105.168 20.2212C105.569 21.0382 106.37 21.3446 107.571 21.3446C108.046 21.4049 108.527 21.3207 108.955 21.1026C109.383 20.8846 109.737 20.5424 109.975 20.1191C110.504 18.8276 110.743 17.4319 110.676 16.034V14.3999H107.772V12.051H113.58V23.5914H111.577L111.277 20.9361C111.014 21.826 110.467 22.6008 109.724 23.1375C108.98 23.6741 108.081 23.9417 107.171 23.8978C106.343 23.9474 105.517 23.7868 104.765 23.4303C104.014 23.0738 103.361 22.5326 102.865 21.8552Z" fill="#111111"/>
<path d="M119.989 15.4212L115.082 0.408447H118.086L121.591 11.6425L124.996 0.408447H128L123.093 15.4212V23.5914H120.089V15.4212H119.989Z" fill="#111111"/>
</svg>
